<svg width="41" height="50" viewBox="0 0 41 50" fill="none" xmlns="http://www.w3.org/2000/svg">
<g clip-path="url(#clip0_273_33249)">
<path d="M39.3928 17.0588C36.061 19.1176 34.0032 22.6471 34.0032 26.5686C34.0032 30.9804 36.649 35 40.6667 36.6667C39.8827 39.2157 38.7068 41.5686 37.2369 43.7255C35.0811 46.7647 32.8273 49.902 29.4956 49.902C26.1639 49.902 25.1839 47.9412 21.2643 47.9412C17.4426 47.9412 16.0707 50 12.9349 50C9.7992 50 7.64337 47.1569 5.19357 43.6275C1.95984 38.7255 0.097992 33.0392 0 27.0588C0 17.3529 6.27149 12.1569 12.543 12.1569C15.8747 12.1569 18.6185 14.3137 20.6763 14.3137C22.6361 14.3137 25.7719 12.0588 29.4956 12.0588C33.4153 11.9608 37.139 13.8235 39.3928 17.0588ZM27.7317 7.94118C29.3976 5.98039 30.2795 3.52941 30.3775 0.980392C30.3775 0.686275 30.3775 0.294118 30.2795 0C27.4378 0.294118 24.792 1.66667 22.9301 3.82353C21.2643 5.68627 20.2843 8.03922 20.1863 10.5882C20.1863 10.8824 20.1863 11.1765 20.2843 11.4706C20.4803 11.4706 20.7743 11.5686 20.9703 11.5686C23.6161 11.3725 26.0659 10 27.7317 7.94118Z" fill="black"/>
</g>
<defs>
<clipPath id="clip0_273_33249">
<rect width="40.6667" height="50" fill="white"/>
</clipPath>
</defs>
</svg>
