<svg width="174" height="59" viewBox="0 0 174 59" fill="none" xmlns="http://www.w3.org/2000/svg">
<path d="M59 29.5C59 45.7924 45.7924 59 29.5 59C13.2076 59 0 45.7924 0 29.5C0 13.2076 13.2076 0 29.5 0C45.7924 0 59 13.2076 59 29.5ZM16.0118 29.5C16.0118 36.9493 22.0507 42.9882 29.5 42.9882C36.9493 42.9882 42.9882 36.9493 42.9882 29.5C42.9882 22.0507 36.9493 16.0118 29.5 16.0118C22.0507 16.0118 16.0118 22.0507 16.0118 29.5Z" fill="#0040B8"/>
<path d="M86.912 37.264C85.088 37.264 83.528 36.904 82.232 36.184C80.936 35.464 79.936 34.456 79.232 33.16C78.544 31.848 78.2 30.304 78.2 28.528C78.2 26.768 78.544 25.24 79.232 23.944C79.936 22.632 80.936 21.616 82.232 20.896C83.528 20.176 85.088 19.816 86.912 19.816C88.032 19.816 89.104 19.992 90.128 20.344C91.152 20.696 91.992 21.176 92.648 21.784L91.496 24.736C90.776 24.176 90.048 23.768 89.312 23.512C88.592 23.24 87.832 23.104 87.032 23.104C85.416 23.104 84.192 23.576 83.36 24.52C82.544 25.448 82.136 26.784 82.136 28.528C82.136 30.272 82.544 31.616 83.36 32.56C84.192 33.504 85.416 33.976 87.032 33.976C87.832 33.976 88.592 33.848 89.312 33.592C90.048 33.32 90.776 32.904 91.496 32.344L92.648 35.296C91.992 35.888 91.152 36.368 90.128 36.736C89.104 37.088 88.032 37.264 86.912 37.264ZM94.6308 22.936V19.552H98.5428V22.936H94.6308ZM94.7748 37V25.216H98.3988V37H94.7748ZM101.197 37V25.216H104.749V27.256C105.309 25.88 106.509 25.12 108.349 24.976L109.405 24.904L109.621 27.952L107.581 28.168C105.789 28.344 104.893 29.256 104.893 30.904V37H101.197ZM116.612 37.264C115.332 37.264 114.212 37.016 113.252 36.52C112.308 36.008 111.58 35.288 111.068 34.36C110.556 33.432 110.3 32.336 110.3 31.072C110.3 29.808 110.556 28.72 111.068 27.808C111.58 26.896 112.308 26.2 113.252 25.72C114.212 25.224 115.332 24.976 116.612 24.976C117.364 24.976 118.124 25.088 118.892 25.312C119.66 25.536 120.284 25.856 120.764 26.272L119.756 28.768C119.356 28.448 118.908 28.2 118.412 28.024C117.916 27.832 117.436 27.736 116.972 27.736C116.028 27.736 115.292 28.032 114.764 28.624C114.252 29.2 113.996 30.024 113.996 31.096C113.996 32.152 114.252 32.984 114.764 33.592C115.292 34.184 116.028 34.48 116.972 34.48C117.42 34.48 117.892 34.392 118.388 34.216C118.9 34.04 119.356 33.784 119.756 33.448L120.764 35.944C120.284 36.36 119.66 36.688 118.892 36.928C118.124 37.152 117.364 37.264 116.612 37.264ZM126.729 37.264C125.209 37.264 124.097 36.872 123.393 36.088C122.689 35.288 122.337 34.104 122.337 32.536V20.08H125.961V32.392C125.961 33.672 126.529 34.312 127.665 34.312C127.841 34.312 128.009 34.304 128.169 34.288C128.345 34.272 128.513 34.24 128.673 34.192L128.625 37C128.017 37.176 127.385 37.264 126.729 37.264ZM136.332 37.264C134.94 37.264 133.74 37.016 132.732 36.52C131.74 36.008 130.972 35.296 130.428 34.384C129.9 33.456 129.636 32.368 129.636 31.12C129.636 29.904 129.892 28.84 130.404 27.928C130.932 27 131.644 26.28 132.54 25.768C133.452 25.24 134.5 24.976 135.684 24.976C137.396 24.976 138.756 25.52 139.764 26.608C140.772 27.68 141.276 29.136 141.276 30.976V31.888H133.092C133.22 32.816 133.556 33.496 134.1 33.928C134.66 34.344 135.428 34.552 136.404 34.552C137.044 34.552 137.692 34.456 138.348 34.264C139.004 34.072 139.596 33.776 140.124 33.376L141.084 35.8C140.492 36.248 139.764 36.608 138.9 36.88C138.052 37.136 137.196 37.264 136.332 37.264ZM135.828 27.376C135.06 27.376 134.436 27.608 133.956 28.072C133.492 28.536 133.204 29.184 133.092 30.016H138.276C138.18 28.256 137.364 27.376 135.828 27.376ZM148.432 37L156.208 20.08H159.208L166.984 37H163.24L161.656 33.328H153.76L152.2 37H148.432ZM157.672 24.04L155.008 30.424H160.432L157.72 24.04H157.672ZM168.446 37V20.08H172.166V37H168.446Z" fill="black"/>
</svg>
