<svg width="48" height="49" viewBox="0 0 48 49" fill="none" xmlns="http://www.w3.org/2000/svg">
<rect y="0.5" width="48" height="48" rx="15" fill="white"/>
<path d="M25.5 13.3638C25.5 12.9659 25.342 12.5844 25.0607 12.3031C24.7794 12.0218 24.3978 11.8638 24 11.8638C23.6022 11.8638 23.2206 12.0218 22.9393 12.3031C22.658 12.5844 22.5 12.9659 22.5 13.3638H25.5ZM22.5 25.3638C22.5 25.7616 22.658 26.1431 22.9393 26.4244C23.2206 26.7057 23.6022 26.8638 24 26.8638C24.3978 26.8638 24.7794 26.7057 25.0607 26.4244C25.342 26.1431 25.5 25.7616 25.5 25.3638H22.5ZM20.06 20.3038C19.9227 20.1564 19.7571 20.0382 19.5731 19.9562C19.3891 19.8742 19.1905 19.8301 18.989 19.8266C18.7876 19.823 18.5876 19.8601 18.4008 19.9355C18.214 20.011 18.0444 20.1233 17.9019 20.2657C17.7595 20.4081 17.6472 20.5778 17.5718 20.7646C17.4963 20.9514 17.4593 21.1514 17.4628 21.3528C17.4664 21.5542 17.5105 21.7528 17.5924 21.9368C17.6744 22.1208 17.7926 22.2864 17.94 22.4238L20.06 20.3038ZM24 26.3638L22.94 27.4238C23.2213 27.7047 23.6025 27.8624 24 27.8624C24.3975 27.8624 24.7788 27.7047 25.06 27.4238L24 26.3638ZM30.06 22.4238C30.325 22.1394 30.4692 21.7633 30.4624 21.3747C30.4555 20.9861 30.2981 20.6154 30.0232 20.3405C29.7484 20.0657 29.3776 19.9083 28.989 19.9014C28.6004 19.8946 28.2244 20.0388 27.94 20.3038L30.06 22.4238ZM22.5 13.3638V25.3638H25.5V13.3638H22.5ZM17.94 22.4238L22.94 27.4238L25.06 25.3038L20.06 20.3038L17.94 22.4238ZM25.06 27.4238L30.06 22.4238L27.94 20.3038L22.94 25.3038L25.06 27.4238Z" fill="#0040B8"/>
<path d="M16.796 31.2399C16.6292 31.126 16.4412 31.0469 16.2431 31.0074C16.0451 30.968 15.8411 30.9689 15.6434 31.0102C15.4457 31.0515 15.2584 31.1322 15.0927 31.2477C14.927 31.3631 14.7862 31.5108 14.679 31.6819C14.5717 31.853 14.5002 32.044 14.4685 32.2435C14.4369 32.4429 14.4458 32.6467 14.4949 32.8427C14.5439 33.0386 14.632 33.2226 14.7538 33.3836C14.8757 33.5446 15.0288 33.6794 15.204 33.7799L16.796 31.2399ZM32.812 33.7699C33.1304 33.5477 33.3502 33.2107 33.4252 32.8297C33.5003 32.4488 33.4247 32.0536 33.2144 31.7273C33.0041 31.4009 32.6754 31.1688 32.2975 31.0798C31.9196 30.9907 31.5219 31.0517 31.188 31.2499L32.812 33.7699ZM15.204 33.7819L15.364 33.8819L16.954 31.3379L16.796 31.2399L15.204 33.7819ZM15.364 33.8819C17.983 35.5211 21.0144 36.3812 24.104 36.3617C27.1936 36.3423 30.2139 35.442 32.812 33.7699L31.188 31.2479C29.0685 32.6121 26.6046 33.3451 24.0841 33.361C21.5635 33.3769 19.0905 32.6752 16.954 31.3379L15.362 33.8799L15.364 33.8819Z" fill="#0A0A30"/>
</svg>
